<svg xmlns="http://www.w3.org/2000/svg" xmlns:xlink="http://www.w3.org/1999/xlink" width="34" height="33" version="1.1" viewBox="0 0 34 33"><title>rocket</title><desc>Created with Sketch.</desc><g id="Fastlane-HP-Build" fill="none" fill-rule="evenodd" stroke="none" stroke-width="1"><g id="icons" stroke="#FFF" transform="translate(-239.000000, -231.000000)"><g id="rocket" transform="translate(240.000000, 231.000000)"><path id="Stroke-1" d="M9.1667,18.7973 C9.1667,18.7973 13.9997,2.2973 32.0837,0.5473 C32.0837,0.5473 32.9167,13.1303 13.9997,23.5473 L9.1667,18.7973 Z"/><path id="Stroke-3" d="M25.3275,9.5473 C25.3275,10.9283 24.2085,12.0473 22.8275,12.0473 C21.4465,12.0473 20.3275,10.9283 20.3275,9.5473 C20.3275,8.1663 21.4465,7.0473 22.8275,7.0473 C24.2085,7.0473 25.3275,8.1663 25.3275,9.5473 Z"/><polygon id="Stroke-5" stroke-linejoin="round" points="14.16 9.94 8.75 9.94 2.75 16.048 10.274 16.048"/><polygon id="Stroke-7" stroke-linejoin="round" points="23.369 17.14 23.918 22.522 18.45 29.11 17.687 21.626"/><path id="Stroke-9" stroke-linecap="round" d="M14.9167,18.0473 L8.9357,24.0283"/><path id="Stroke-11" stroke-linecap="round" d="M6.7083,26.089 L1.4163,31.381"/><path id="Stroke-13" stroke-linecap="round" d="M5.7917,20.3806 L0.4997,25.6726"/><path id="Stroke-15" stroke-linecap="round" d="M11.8125,26.8114 L6.5205,32.1034"/></g></g></g></svg>